<?xml version="1.0" encoding="UTF-8" standalone="no"?>
<svg
   xmlns:dc="http://purl.org/dc/elements/1.1/"
   xmlns:cc="http://creativecommons.org/ns#"
   xmlns:rdf="http://www.w3.org/1999/02/22-rdf-syntax-ns#"
   xmlns:svg="http://www.w3.org/2000/svg"
   xmlns="http://www.w3.org/2000/svg"
   viewBox="0 0 1866.6667 1306.6667"
   height="1306.6667"
   width="1866.6667"
   xml:space="preserve"
   id="svg2"
   version="1.1"><metadata
     id="metadata8"><rdf:RDF><cc:Work
         rdf:about=""><dc:format>image/svg+xml</dc:format><dc:type
           rdf:resource="http://purl.org/dc/dcmitype/StillImage" /></cc:Work></rdf:RDF></metadata><defs
     id="defs6"><pattern
       id="pattern52"
       height="8.03125"
       width="9.27414"
       y="0"
       x="0"
       patternUnits="userSpaceOnUse"
       patternTransform="translate(-700,81.062)"><g
         id="g50"
         transform="translate(2.463,0.25)"><path
           id="path48"
           style="fill:none;stroke:#ffffff;stroke-opacity:1;stroke-width:0.5;stroke-linecap:butt;stroke-linejoin:miter;stroke-miterlimit:10;stroke-dasharray:none"
           d="M 0,0 -2.174,3.766 0,7.531 4.348,7.531 6.522,3.766 4.348,0 0,0 Z" /></g></pattern><clipPath
       id="clipPath70"
       clipPathUnits="userSpaceOnUse"><path
         id="path68"
         d="M 0,980 H 1400 V 0 H 0 Z" /></clipPath><pattern
       id="pattern82"
       height="8.03125"
       width="9.27414"
       y="0"
       x="0"
       patternUnits="userSpaceOnUse"
       patternTransform="matrix(-1,0,0,1,-15261.989,396.5845)"><g
         id="g80"
         transform="translate(2.463,0.25)"><path
           id="path78"
           style="fill:none;stroke:#ffffff;stroke-opacity:1;stroke-width:0.5;stroke-linecap:butt;stroke-linejoin:miter;stroke-miterlimit:10;stroke-dasharray:none"
           d="M 0,0 -2.174,3.766 0,7.531 4.348,7.531 6.522,3.766 4.348,0 0,0 Z" /></g></pattern><clipPath
       id="clipPath128"
       clipPathUnits="userSpaceOnUse"><path
         id="path126"
         d="M 0,980 H 1400 V 0 H 0 Z" /></clipPath><clipPath
       id="clipPath132"
       clipPathUnits="userSpaceOnUse"><path
         id="path130"
         d="M 1400,0 H 0 v 980 h 1400 z" /></clipPath><clipPath
       id="clipPath136"
       clipPathUnits="userSpaceOnUse"><path
         id="path134"
         d="M -32768,32767 H 32767 V -32768 H -32768 Z" /></clipPath><radialGradient
       id="radialGradient146"
       spreadMethod="pad"
       gradientTransform="matrix(866.92578,0,0,-678.2486,700,490)"
       gradientUnits="userSpaceOnUse"
       r="1"
       cy="0"
       cx="0"
       fy="0"
       fx="0"><stop
         id="stop138"
         offset="0"
         style="stop-opacity:0;stop-color:#ffffff" /><stop
         id="stop140"
         offset="0.004329"
         style="stop-opacity:0;stop-color:#ffffff" /><stop
         id="stop142"
         offset="0.37638825"
         style="stop-opacity:0;stop-color:#ffffff" /><stop
         id="stop144"
         offset="1"
         style="stop-opacity:0.50000763;stop-color:#ffffff" /></radialGradient><mask
       id="mask148"
       height="1"
       width="1"
       y="0"
       x="0"
       maskUnits="userSpaceOnUse"><g
         id="g158"><g
           id="g156"
           clip-path="url(#clipPath136)"><g
             id="g154"><g
               id="g152"><path
                 id="path150"
                 style="fill:url(#radialGradient146);stroke:none"
                 d="M -32768,32767 H 32767 V -32768 H -32768 Z" /></g></g></g></g></mask><radialGradient
       id="radialGradient168"
       spreadMethod="pad"
       gradientTransform="matrix(866.92578,0,0,-678.2486,700,490)"
       gradientUnits="userSpaceOnUse"
       r="1"
       cy="0"
       cx="0"
       fy="0"
       fx="0"><stop
         id="stop160"
         offset="0"
         style="stop-opacity:1;stop-color:#ffffff" /><stop
         id="stop162"
         offset="0.004329"
         style="stop-opacity:1;stop-color:#ffffff" /><stop
         id="stop164"
         offset="0.37638825"
         style="stop-opacity:1;stop-color:#ffffff" /><stop
         id="stop166"
         offset="1"
         style="stop-opacity:1;stop-color:#231f20" /></radialGradient></defs><g
     transform="matrix(1.3333333,0,0,-1.3333333,0,1306.6667)"
     id="g10"><path
       id="path12"
       style="fill:#4f980b;fill-opacity:1;fill-rule:nonzero;stroke:none"
       d="M 0,0 H 100 V 980 H 0 Z" /><path
       id="path14"
       style="fill:#3c8009;fill-opacity:1;fill-rule:nonzero;stroke:none"
       d="M 100,0 H 200 V 980 H 100 Z" /><path
       id="path16"
       style="fill:#4f980b;fill-opacity:1;fill-rule:nonzero;stroke:none"
       d="M 200,0 H 300 V 980 H 200 Z" /><path
       id="path18"
       style="fill:#3c8009;fill-opacity:1;fill-rule:nonzero;stroke:none"
       d="m 300,0 h 99.999 V 980 H 300 Z" /><path
       id="path20"
       style="fill:#4f980b;fill-opacity:1;fill-rule:nonzero;stroke:none"
       d="m 399.999,0 h 100 v 980 h -100 z" /><path
       id="path22"
       style="fill:#3c8009;fill-opacity:1;fill-rule:nonzero;stroke:none"
       d="m 499.999,0 h 100 v 980 h -100 z" /><path
       id="path24"
       style="fill:#4f980b;fill-opacity:1;fill-rule:nonzero;stroke:none"
       d="m 599.998,0 h 100 v 980 h -100 z" /><path
       id="path26"
       style="fill:#3c8009;fill-opacity:1;fill-rule:nonzero;stroke:none"
       d="m 699.998,0 h 100 v 980 h -100 z" /><path
       id="path28"
       style="fill:#4f980b;fill-opacity:1;fill-rule:nonzero;stroke:none"
       d="m 799.998,0 h 100 v 980 h -100 z" /><path
       id="path30"
       style="fill:#3c8009;fill-opacity:1;fill-rule:nonzero;stroke:none"
       d="M 899.998,0 H 999.999 V 980 H 899.998 Z" /><path
       id="path32"
       style="fill:#4f980b;fill-opacity:1;fill-rule:nonzero;stroke:none"
       d="m 999.999,0 h 100 v 980 h -100 z" /><path
       id="path34"
       style="fill:#3c8009;fill-opacity:1;fill-rule:nonzero;stroke:none"
       d="m 1099.999,0 h 100 v 980 h -100 z" /><path
       id="path36"
       style="fill:#4f980b;fill-opacity:1;fill-rule:nonzero;stroke:none"
       d="M 1199.999,0 H 1300 v 980 h -100.001 z" /><path
       id="path38"
       style="fill:#3c8009;fill-opacity:1;fill-rule:nonzero;stroke:none"
       d="m 1300,0 h 100.001 V 980 H 1300 Z" /><path
       id="path40"
       style="fill:none;stroke:#ffffff;stroke-width:7;stroke-linecap:butt;stroke-linejoin:miter;stroke-miterlimit:10;stroke-dasharray:none;stroke-opacity:1"
       d="M 1303,92 H 97 v 802 h 1206 z" /><g
       transform="translate(700,894)"
       id="g42"><path
         id="path44"
         style="fill:none;stroke:#ffffff;stroke-width:7;stroke-linecap:butt;stroke-linejoin:miter;stroke-miterlimit:10;stroke-dasharray:none;stroke-opacity:1"
         d="M 0,0 V -802" /></g><path
       id="path46"
       style="fill:none;stroke:#ffffff;stroke-width:4.20900011;stroke-linecap:butt;stroke-linejoin:miter;stroke-miterlimit:10;stroke-dasharray:none;stroke-opacity:1"
       d="M 97,432.759 H 53.939 V 553.241 H 97 Z" /><path
       id="path54"
       style="fill:url(#pattern52);fill-opacity:1;fill-rule:nonzero;stroke:none"
       d="M 97,432.759 H 53.939 V 553.241 H 97 Z" /><g
       transform="translate(97,720.3965)"
       id="g56"><path
         id="path58"
         style="fill:none;stroke:#ffffff;stroke-width:7;stroke-linecap:butt;stroke-linejoin:miter;stroke-miterlimit:10;stroke-dasharray:none;stroke-opacity:1"
         d="M 0,0 H 186.883 V -454.793 H 0" /></g><g
       transform="translate(97,596.1152)"
       id="g60"><path
         id="path62"
         style="fill:none;stroke:#ffffff;stroke-width:7;stroke-linecap:butt;stroke-linejoin:miter;stroke-miterlimit:10;stroke-dasharray:none;stroke-opacity:1"
         d="M 0,0 H 60.974 V -206.23 H 0" /></g><g
       id="g64"><g
         clip-path="url(#clipPath70)"
         id="g66"><g
           transform="translate(283.8887,578.4775)"
           id="g72"><path
             id="path74"
             style="fill:none;stroke:#ffffff;stroke-width:7;stroke-linecap:butt;stroke-linejoin:miter;stroke-miterlimit:10;stroke-dasharray:none;stroke-opacity:1"
             d="m 0,0 c 25.727,-19.633 42.327,-50.617 42.327,-85.478 -10e-4,-34.861 -16.601,-65.845 -42.329,-85.478" /></g><path
           id="path76"
           style="fill:none;stroke:#ffffff;stroke-width:4.20900011;stroke-linecap:butt;stroke-linejoin:miter;stroke-miterlimit:10;stroke-dasharray:none;stroke-opacity:1"
           d="m 1303,432.759 h 43.061 V 553.241 H 1303 Z" /><path
           id="path84"
           style="fill:url(#pattern82);fill-opacity:1;fill-rule:nonzero;stroke:none"
           d="m 1303,432.759 h 43.061 V 553.241 H 1303 Z" /><g
           transform="translate(1303,720.3965)"
           id="g86"><path
             id="path88"
             style="fill:none;stroke:#ffffff;stroke-width:7;stroke-linecap:butt;stroke-linejoin:miter;stroke-miterlimit:10;stroke-dasharray:none;stroke-opacity:1"
             d="M 0,0 H -186.883 V -454.793 H 0" /></g><g
           transform="translate(1303,596.1152)"
           id="g90"><path
             id="path92"
             style="fill:none;stroke:#ffffff;stroke-width:7;stroke-linecap:butt;stroke-linejoin:miter;stroke-miterlimit:10;stroke-dasharray:none;stroke-opacity:1"
             d="M 0,0 H -60.975 V -206.23 H 0" /></g><g
           transform="translate(1116.1113,578.4775)"
           id="g94"><path
             id="path96"
             style="fill:none;stroke:#ffffff;stroke-width:7;stroke-linecap:butt;stroke-linejoin:miter;stroke-miterlimit:10;stroke-dasharray:none;stroke-opacity:1"
             d="m 0,0 c -25.727,-19.633 -42.326,-50.617 -42.326,-85.478 0,-34.861 16.6,-65.845 42.328,-85.478" /></g><g
           transform="translate(808.1465,492.9995)"
           id="g98"><path
             id="path100"
             style="fill:none;stroke:#ffffff;stroke-width:7;stroke-linecap:butt;stroke-linejoin:miter;stroke-miterlimit:10;stroke-dasharray:none;stroke-opacity:1"
             d="m 0,0 c 0,-59.728 -48.419,-108.146 -108.146,-108.146 -59.728,0 -108.147,48.418 -108.147,108.146 0,59.728 48.419,108.146 108.147,108.146 C -48.419,108.146 0,59.728 0,0 Z" /></g><g
           transform="translate(707.3193,493)"
           id="g102"><path
             id="path104"
             style="fill:#ffffff;fill-opacity:1;fill-rule:nonzero;stroke:none"
             d="m 0,0 c 0,-4.043 -3.277,-7.319 -7.319,-7.319 -4.042,0 -7.32,3.276 -7.32,7.319 0,4.042 3.278,7.319 7.32,7.319 C -3.277,7.319 0,4.042 0,0" /></g><g
           transform="translate(127.3794,894.0005)"
           id="g106"><path
             id="path108"
             style="fill:none;stroke:#ffffff;stroke-width:4;stroke-linecap:butt;stroke-linejoin:miter;stroke-miterlimit:10;stroke-dasharray:none;stroke-opacity:1"
             d="M 0,0 C -1.307,-15.836 -14.329,-28.349 -30.379,-28.856" /></g><g
           transform="translate(127.3794,92)"
           id="g110"><path
             id="path112"
             style="fill:none;stroke:#ffffff;stroke-width:4;stroke-linecap:butt;stroke-linejoin:miter;stroke-miterlimit:10;stroke-dasharray:none;stroke-opacity:1"
             d="M 0,0 C -1.307,15.836 -14.329,28.349 -30.379,28.855" /></g><g
           transform="translate(1272.6211,894.0005)"
           id="g114"><path
             id="path116"
             style="fill:none;stroke:#ffffff;stroke-width:4;stroke-linecap:butt;stroke-linejoin:miter;stroke-miterlimit:10;stroke-dasharray:none;stroke-opacity:1"
             d="M 0,0 C 1.307,-15.836 14.328,-28.349 30.379,-28.856" /></g><g
           transform="translate(1272.6211,92)"
           id="g118"><path
             id="path120"
             style="fill:none;stroke:#ffffff;stroke-width:4;stroke-linecap:butt;stroke-linejoin:miter;stroke-miterlimit:10;stroke-dasharray:none;stroke-opacity:1"
             d="M 0,0 C 1.307,15.836 14.328,28.349 30.379,28.855" /></g><g
           id="g122"><g
             id="g124" /><g
             id="g186"><g
               id="g184"
               clip-path="url(#clipPath128)"><g
                 id="g182"><g
                   id="g180"
                   clip-path="url(#clipPath132)"><g
                     id="g178"><g
                       id="g170" /><g
                       id="g176"
                       mask="url(#mask148)"><g
                         id="g174"><path
                           id="path172"
                           style="fill:url(#radialGradient168);stroke:none"
                           d="M 1400,0 H 0 v 980 h 1400 z" /></g></g></g></g></g></g></g></g></g></g></g></svg>